<svg width="781" height="781" viewBox="0 0 781 781" fill="none" xmlns="http://www.w3.org/2000/svg">
<rect width="781" height="781" fill="#FFEB01"/>
<path d="M265.561 155.578C216.264 162.454 174.309 200.912 180.136 233.893C180.836 237.739 182.234 242.517 183.4 244.615C186.313 249.626 196.452 254.637 203.678 254.637H209.155L207.523 249.16C205.426 242.284 205.426 229.465 207.64 219.326C214.05 188.792 238.873 170.262 275.35 168.747C293.996 167.931 300.639 169.796 309.263 178.42C316.722 185.878 319.752 194.619 321.383 213.732C325.579 264.31 299.94 335.749 274.884 343.324C264.978 346.238 257.053 339.945 252.275 325.261C249.828 317.686 249.595 315.005 249.711 294.844C249.711 275.498 250.177 270.836 252.858 258.017C258.102 233.194 267.542 209.769 280.361 190.307L286.188 181.333L281.294 179.935C274.534 178.07 265.094 179.352 257.636 182.965C232.58 195.202 213.467 247.528 213.7 303.002C213.817 328.99 218.012 342.625 229.083 353.697C245.049 369.663 277.098 372.576 297.143 359.873C324.647 342.509 347.605 297.058 353.315 248.694C355.18 233.194 354.481 215.014 351.451 202.66C345.857 179.003 329.075 162.92 304.368 157.559C293.996 155.228 275 154.296 265.561 155.578Z" fill="black"/>
<path d="M544.791 224.57L527.66 228.183L525.096 239.371C521.6 255.22 515.307 275.382 511.111 284.821C508.198 291.464 506.916 292.979 504.352 293.445C499.341 294.494 494.213 299.506 490.717 306.848C488.269 312.092 487.453 315.821 486.987 324.096C485.705 348.103 493.863 359.524 515.307 363.603C540.13 368.381 564.137 362.904 576.374 349.618C584.532 340.761 587.445 333.186 587.911 318.735C588.494 304.633 587.212 298.69 579.171 277.363C572.411 259.183 569.614 247.412 568.682 232.728C567.866 218.627 570.197 219.442 544.791 224.57ZM538.615 277.363C540.13 283.773 542.81 293.445 544.442 298.806C549.803 316.404 547.821 330.389 538.731 340.528C532.321 347.637 527.077 349.501 518.337 347.87C508.081 346.005 503.303 340.877 501.322 330.039C500.389 325.261 500.623 325.144 506.566 326.893C512.043 328.524 519.269 326.543 523.698 322.114C530.923 315.122 531.156 302.652 524.164 296.359L520.667 293.212L523.931 283.54C525.795 278.179 528.709 268.622 530.573 262.213L533.953 250.559L534.885 258.134C535.352 262.329 537.1 270.953 538.615 277.363Z" fill="black"/>
<path d="M378.954 226.901C378.721 227.717 371.146 263.261 362.173 305.915C353.199 348.569 343.41 394.836 340.38 408.82C337.466 422.805 335.252 434.459 335.485 434.809C335.951 435.159 375.924 426.185 376.973 425.369C377.09 425.253 380.469 409.986 384.315 391.456C388.278 372.926 391.541 357.659 391.774 357.426C392.007 357.193 394.687 358.358 397.834 359.99C423.007 372.693 451.209 361.272 465.427 332.72C473.818 315.821 479.412 292.63 480.578 269.788C481.626 250.209 477.548 238.905 466.942 231.679C461.465 227.833 456.104 226.551 443.634 225.852C434.544 225.386 431.398 225.619 425.92 227.484C419.394 229.698 419.161 229.698 419.161 227.6C419.161 225.619 417.879 225.502 399.349 225.502C384.432 225.502 379.304 225.852 378.954 226.901ZM440.022 241.119C448.646 245.664 449.228 261.513 441.653 295.427C435.36 324.445 429.067 338.547 420.909 342.392C414.499 345.422 403.195 344.607 397.717 340.528C395.736 339.013 395.969 337.148 403.777 299.972C416.83 238.322 414.965 244.732 421.259 241.935C427.668 239.138 435.476 238.788 440.022 241.119Z" fill="black"/>
<path d="M199.598 371.452C163.004 378.094 128.508 406.414 122.681 434.616C120.933 443.007 122.681 454.778 126.411 460.022C129.79 464.8 137.132 468.297 145.29 469.112L152.05 469.695L150.301 465.5C147.971 459.906 147.971 440.56 150.301 431.586C154.963 413.756 166.734 399.421 182.816 391.73C187.711 389.399 191.906 387.651 192.139 387.884C192.372 388.117 187.361 404.316 180.952 423.895C174.542 443.474 166.617 468.064 163.121 478.669C159.625 489.274 151.117 515.729 144.008 537.522C136.899 559.315 131.072 577.845 131.072 578.544C131.072 579.709 133.986 580.059 141.911 580.059H152.749L170.696 521.556L188.76 463.052L189.109 521.556L189.342 580.059L208.805 579.826L228.267 579.476L253.323 516.777C267.191 482.281 278.612 454.545 278.845 455.128C279.195 456.176 272.319 489.507 259.267 550.574C256.004 565.491 253.44 578.194 253.44 578.777C253.44 580.758 292.947 580.525 293.646 578.544C294.229 577.262 300.638 547.078 318.702 461.654C322.432 443.707 328.259 416.786 331.522 401.869C334.668 386.951 337.349 374.598 337.349 374.249C337.349 374.016 327.443 373.782 315.323 373.782H293.296L288.984 385.087C286.537 391.38 282.458 402.218 279.661 409.327C276.981 416.32 265.443 446.97 253.906 477.27L233.045 532.51L232.695 453.146L232.462 373.666L229.199 372.5C225.004 370.869 206.474 370.17 199.598 371.452Z" fill="black"/>
<path d="M531.855 436.365C527.426 439.045 524.979 443.823 524.979 449.534C524.979 458.391 530.806 464.218 538.614 463.285C541.877 462.936 541.877 462.936 541.527 468.763C540.012 494.402 529.407 525.168 516.355 541.717C507.265 553.371 493.047 557.8 487.453 550.807C486.287 549.409 485.355 546.845 485.355 544.864C485.355 542.999 489.9 520.39 495.377 494.635C500.855 468.879 505.633 445.804 505.983 443.357L506.682 439.045H486.753C468.806 439.045 466.825 439.278 466.242 441.026C465.893 442.192 464.028 450.699 462.163 459.906C460.182 469.112 458.434 476.921 458.084 477.27C456.22 479.135 445.498 480.767 441.885 479.718C438.04 478.669 437.923 478.319 437.224 471.909C434.893 449.767 424.637 438.229 406.457 437.064C385.48 435.665 362.871 446.038 350.401 462.936C335.95 482.631 329.424 507.221 330.589 538.687C331.289 556.518 333.736 564.326 340.495 570.969C348.42 578.66 354.597 580.642 370.563 580.642C383.965 580.642 384.897 580.525 392.589 576.796C402.961 571.901 415.547 559.431 422.19 547.428C428.25 536.706 433.494 520.623 435.359 507.687L436.758 497.898L445.498 494.402C450.393 492.421 454.705 490.789 455.054 490.556C455.521 490.439 453.539 500.811 450.859 513.747C444.682 542.649 443.983 548.71 445.615 556.984C447.596 566.074 452.257 572.018 460.532 576.097C466.592 579.127 468.457 579.476 478.945 579.476C495.96 579.476 507.148 575.048 519.851 563.394C541.644 543.465 557.726 501.278 558.076 462.936C558.193 447.786 555.862 440.793 549.219 436.714C544.557 433.917 536.167 433.684 531.855 436.365ZM408.904 454.195C412.284 455.477 414.848 459.09 415.897 464.218C416.596 467.248 416.247 467.947 413.683 469.346C408.904 471.909 404.709 480.067 404.592 486.71C404.476 493.703 407.273 498.248 412.168 499.296L415.664 499.996L414.965 506.522C413.333 520.973 406.574 539.153 399.814 547.078C391.074 557.567 374.175 556.052 369.281 544.398C365.668 535.89 368.698 506.988 375.108 488.342C383.732 463.169 397.017 449.65 408.904 454.195Z" fill="black"/>
<path d="M613.2 437.88C605.391 439.278 594.204 444.872 587.561 450.699C568.798 467.364 556.445 503.142 557.843 536.939C558.309 548.243 558.775 550.341 562.155 557.217C566.7 566.54 575.091 574.348 583.598 577.378C592.572 580.525 612.5 580.175 623.455 576.912C635.109 573.183 641.869 568.638 646.064 561.179C649.327 555.469 651.658 546.961 650.609 543.931C650.493 543.349 647.346 544.864 643.85 547.544C633.245 555.585 624.737 559.081 615.764 559.081C609.703 559.081 607.256 558.499 604.11 556.401C597.234 551.856 593.621 540.318 595.369 528.431C596.185 523.187 596.185 523.187 601.662 522.371C609.47 521.206 623.805 515.495 631.73 510.251C649.444 498.83 659 483.563 659 466.315C659 450.349 650.259 440.677 633.245 437.88C624.854 436.598 621.241 436.598 613.2 437.88ZM637.44 453.729C639.421 455.011 640.587 457.342 641.519 461.537C645.831 482.514 627.534 505.473 603.177 509.552L598.166 510.368L598.982 506.522C600.613 498.597 607.839 478.086 611.335 471.56C619.842 455.594 629.865 448.718 637.44 453.729Z" fill="black"/>
<path d="M131.151 604.191H123.405V600.937H142.595V604.191H134.849V626.672H131.151V604.191Z" fill="black"/>
<path d="M147.254 600.937H154.557C159.425 600.937 162.562 602.379 163.967 605.264C164.472 606.323 164.725 607.519 164.725 608.85C164.725 610.169 164.546 611.284 164.189 612.196C163.844 613.108 163.357 613.891 162.728 614.544C161.52 615.801 159.856 616.627 157.737 617.022C158.612 619.721 160.097 621.582 162.192 622.605C162.882 622.95 163.462 623.135 163.93 623.16C164.719 623.184 165.273 623.16 165.594 623.086V626.672H164.762C161.989 626.672 159.628 625.686 157.681 623.714C155.968 622.001 154.816 619.844 154.224 617.243H150.952V626.672H147.254V600.937ZM154.316 614.285C156.547 614.285 158.199 613.854 159.271 612.991C160.343 612.129 160.879 610.785 160.879 608.961C160.879 606.533 159.752 604.968 157.496 604.265C156.707 604.019 155.752 603.895 154.631 603.895H150.952V614.285H154.316Z" fill="black"/>
<path d="M177.574 600.937H180.107L190.959 626.672H187.113L184.507 620.202H173.081L170.493 626.672H166.722L177.574 600.937ZM183.323 617.243L178.812 605.966L174.283 617.243H183.323Z" fill="black"/>
<path d="M194.305 600.937H196.967L210.408 619.924L210.204 617.262V600.937H213.865V626.672H211.221L199.999 610.902L197.762 607.685L197.966 610.902V626.672H194.305V600.937Z" fill="black"/>
<path d="M234.238 624.879C233.363 625.495 232.242 625.982 230.874 626.339C229.506 626.685 227.829 626.857 225.845 626.857C223.873 626.857 221.882 626.74 219.874 626.506V622.919C221.673 623.326 223.485 623.529 225.309 623.529C227.133 623.529 228.501 623.431 229.413 623.233C230.325 623.024 231.059 622.753 231.613 622.42C232.636 621.804 233.148 621.003 233.148 620.017C233.148 619.252 232.95 618.661 232.556 618.242C231.927 617.589 231.022 616.991 229.838 616.449L225.106 614.285C223.479 613.521 222.326 612.813 221.648 612.159C220.194 610.754 219.467 609.127 219.467 607.279C219.467 605.381 220.293 603.846 221.944 602.675C223.756 601.393 226.332 600.753 229.672 600.753C231.829 600.753 233.801 600.839 235.588 601.011V604.542C234.072 604.197 232.377 604.025 230.504 604.025C228.643 604.025 227.287 604.123 226.437 604.321C225.599 604.506 224.939 604.746 224.458 605.042C223.583 605.584 223.146 606.299 223.146 607.186C223.146 608.049 223.423 608.764 223.978 609.331C224.471 609.811 225.37 610.366 226.677 610.995L231.539 613.306C233.154 614.07 234.282 614.791 234.922 615.469C235.576 616.147 236.056 616.831 236.364 617.521C236.673 618.199 236.827 619.018 236.827 619.98C236.827 620.929 236.617 621.828 236.198 622.679C235.779 623.517 235.126 624.25 234.238 624.879Z" fill="black"/>
<path d="M241.985 600.937H249.287C254.156 600.937 257.292 602.379 258.698 605.264C259.203 606.323 259.456 607.581 259.456 609.035C259.456 610.489 259.197 611.734 258.679 612.769C258.161 613.805 257.465 614.655 256.59 615.321C254.889 616.603 252.615 617.243 249.768 617.243H245.682V626.672H241.985V600.937ZM249.047 614.285C251.278 614.285 252.929 613.854 254.002 612.991C255.074 612.129 255.61 610.785 255.61 608.961C255.61 606.533 254.482 604.968 252.227 604.265C251.438 604.019 250.483 603.895 249.361 603.895H245.682V614.285H249.047Z" fill="black"/>
<path d="M262.968 613.842C262.968 611.833 263.27 610.015 263.874 608.388C264.478 606.761 265.316 605.374 266.388 604.228C268.644 601.837 271.571 600.642 275.17 600.642C278.781 600.642 281.702 601.837 283.933 604.228C286.201 606.656 287.335 609.861 287.335 613.842C287.335 617.823 286.201 621.015 283.933 623.418C281.715 625.785 278.794 626.968 275.17 626.968C271.559 626.968 268.632 625.785 266.388 623.418C264.108 621.003 262.968 617.81 262.968 613.842ZM266.666 613.823C266.666 616.633 267.35 618.957 268.718 620.793C270.258 622.839 272.409 623.862 275.17 623.862C277.931 623.862 280.075 622.839 281.604 620.793C282.959 618.981 283.637 616.67 283.637 613.86C283.637 611.025 282.959 608.69 281.604 606.853C280.075 604.783 277.931 603.748 275.17 603.748C272.397 603.748 270.246 604.783 268.718 606.853C267.35 608.69 266.666 611.013 266.666 613.823Z" fill="black"/>
<path d="M292.493 600.937H299.796C304.664 600.937 307.801 602.379 309.206 605.264C309.711 606.323 309.964 607.519 309.964 608.85C309.964 610.169 309.785 611.284 309.428 612.196C309.083 613.108 308.596 613.891 307.967 614.544C306.759 615.801 305.095 616.627 302.975 617.022C303.85 619.721 305.336 621.582 307.431 622.605C308.121 622.95 308.7 623.135 309.169 623.16C309.958 623.184 310.512 623.16 310.833 623.086V626.672H310.001C307.228 626.672 304.867 625.686 302.92 623.714C301.207 622.001 300.054 619.844 299.463 617.243H296.19V626.672H292.493V600.937ZM299.555 614.285C301.786 614.285 303.438 613.854 304.51 612.991C305.582 612.129 306.118 610.785 306.118 608.961C306.118 606.533 304.991 604.968 302.735 604.265C301.946 604.019 300.991 603.895 299.87 603.895H296.19V614.285H299.555Z" fill="black"/>
<path d="M320.613 604.191H312.866V600.937H332.056V604.191H324.31V626.672H320.613V604.191Z" fill="black"/>
<path d="M336.42 600.937H353.04V604.154H340.117V611.734H349.897V614.84H340.117V623.418H353.04V626.672H336.42V600.937Z" fill="black"/>
<path d="M371.435 600.938H378.738C383.606 600.938 386.743 602.38 388.148 605.264C388.653 606.324 388.906 607.581 388.906 609.035C388.906 610.49 388.647 611.734 388.129 612.77C387.611 613.805 386.915 614.655 386.04 615.321C384.339 616.603 382.065 617.244 379.218 617.244H375.133V626.672H371.435V600.938ZM378.497 614.286C380.728 614.286 382.38 613.854 383.452 612.992C384.524 612.129 385.06 610.785 385.06 608.961C385.06 606.533 383.933 604.968 381.677 604.266C380.888 604.019 379.933 603.896 378.812 603.896H375.133V614.286H378.497Z" fill="black"/>
<path d="M392.418 613.842C392.418 611.833 392.72 610.015 393.324 608.388C393.928 606.761 394.766 605.375 395.838 604.229C398.094 601.838 401.021 600.642 404.62 600.642C408.231 600.642 411.152 601.838 413.383 604.229C415.651 606.657 416.784 609.861 416.784 613.842C416.784 617.823 415.651 621.015 413.383 623.418C411.164 625.785 408.243 626.968 404.62 626.968C401.009 626.968 398.081 625.785 395.838 623.418C393.558 621.003 392.418 617.811 392.418 613.842ZM396.116 613.824C396.116 616.634 396.8 618.957 398.168 620.793C399.708 622.839 401.859 623.862 404.62 623.862C407.381 623.862 409.525 622.839 411.053 620.793C412.409 618.981 413.087 616.671 413.087 613.86C413.087 611.026 412.409 608.69 411.053 606.854C409.525 604.783 407.381 603.748 404.62 603.748C401.847 603.748 399.696 604.783 398.168 606.854C396.8 608.69 396.116 611.013 396.116 613.824Z" fill="black"/>
<path d="M421.942 600.938H429.245C434.113 600.938 437.25 602.38 438.655 605.264C439.16 606.324 439.413 607.519 439.413 608.85C439.413 610.169 439.234 611.285 438.877 612.197C438.532 613.109 438.045 613.891 437.416 614.545C436.208 615.802 434.545 616.627 432.425 617.022C433.3 619.721 434.785 621.582 436.88 622.605C437.57 622.95 438.15 623.135 438.618 623.16C439.407 623.184 439.961 623.16 440.282 623.086V626.672H439.45C436.677 626.672 434.317 625.686 432.369 623.714C430.656 622.001 429.504 619.844 428.912 617.244H425.64V626.672H421.942V600.938ZM429.005 614.286C431.235 614.286 432.887 613.854 433.959 612.992C435.031 612.129 435.568 610.785 435.568 608.961C435.568 606.533 434.44 604.968 432.184 604.266C431.396 604.019 430.44 603.896 429.319 603.896H425.64V614.286H429.005Z" fill="black"/>
<path d="M464.87 600.938H467.403L478.255 626.672H474.409L471.803 620.202H460.378L457.789 626.672H454.018L464.87 600.938ZM470.62 617.244L466.109 605.966L461.579 617.244H470.62Z" fill="black"/>
<path d="M481.915 600.938H489.218C494.086 600.938 497.223 602.38 498.628 605.264C499.133 606.324 499.386 607.581 499.386 609.035C499.386 610.49 499.127 611.734 498.609 612.77C498.092 613.805 497.395 614.655 496.52 615.321C494.819 616.603 492.546 617.244 489.698 617.244H485.613V626.672H481.915V600.938ZM488.977 614.286C491.208 614.286 492.86 613.854 493.932 612.992C495.004 612.129 495.54 610.785 495.54 608.961C495.54 606.533 494.413 604.968 492.157 604.266C491.368 604.019 490.413 603.896 489.292 603.896H485.613V614.286H488.977Z" fill="black"/>
<path d="M503.73 600.938H507.428V623.418H518.446V626.672H503.73V600.938Z" fill="black"/>
<path d="M522.735 600.938H526.433V626.672H522.735V600.938Z" fill="black"/>
<path d="M549.653 626.524C548.433 626.746 546.787 626.857 544.717 626.857C542.658 626.857 540.797 626.574 539.134 626.007C537.482 625.44 536.058 624.602 534.863 623.492C532.299 621.114 531.018 617.798 531.018 613.546C531.018 610.773 531.677 608.37 532.996 606.336C534.783 603.588 537.525 601.838 541.223 601.086C542.356 600.864 543.706 600.753 545.271 600.753C546.849 600.753 548.112 600.839 549.061 601.012V604.543C548.198 604.272 546.861 604.136 545.049 604.136C543.25 604.136 541.722 604.358 540.465 604.802C539.207 605.245 538.166 605.88 537.34 606.706C535.689 608.32 534.863 610.601 534.863 613.546C534.863 616.516 535.676 618.871 537.303 620.608C539.066 622.482 541.599 623.418 544.902 623.418C546.837 623.418 548.42 623.271 549.653 622.975V626.524Z" fill="black"/>
<path d="M562.779 600.938H565.312L576.164 626.672H572.318L569.712 620.202H558.286L555.698 626.672H551.927L562.779 600.938ZM568.528 617.244L564.017 605.966L559.488 617.244H568.528Z" fill="black"/>
<path d="M585.833 604.192H578.086V600.938H597.276V604.192H589.53V626.672H585.833V604.192Z" fill="black"/>
<path d="M601.676 600.938H605.374V626.672H601.676V600.938Z" fill="black"/>
<path d="M607.444 600.938H611.29L619.368 622.087L627.41 600.938H631.256L621.125 626.672H617.575L607.444 600.938Z" fill="black"/>
<path d="M632.458 613.842C632.458 611.833 632.759 610.015 633.363 608.388C633.967 606.761 634.805 605.375 635.878 604.229C638.133 601.838 641.06 600.642 644.659 600.642C648.27 600.642 651.191 601.838 653.422 604.229C655.69 606.657 656.824 609.861 656.824 613.842C656.824 617.823 655.69 621.015 653.422 623.418C651.204 625.785 648.283 626.968 644.659 626.968C641.048 626.968 638.121 625.785 635.878 623.418C633.598 621.003 632.458 617.811 632.458 613.842ZM636.155 613.824C636.155 616.634 636.839 618.957 638.207 620.793C639.748 622.839 641.898 623.862 644.659 623.862C647.42 623.862 649.564 622.839 651.093 620.793C652.449 618.981 653.126 616.671 653.126 613.86C653.126 611.026 652.449 608.69 651.093 606.854C649.564 604.783 647.42 603.748 644.659 603.748C641.886 603.748 639.735 604.783 638.207 606.854C636.839 608.69 636.155 611.013 636.155 613.824Z" fill="black"/>
</svg>
